<svg xmlns="http://www.w3.org/2000/svg" viewBox="0 0 64 64" width="64" height="64">
  <!-- Background circle with gradient -->
  <defs>
    <linearGradient id="grad1" x1="0%" y1="0%" x2="100%" y2="100%">
      <stop offset="0%" style="stop-color:#9333ea;stop-opacity:1" />
      <stop offset="100%" style="stop-color:#3b82f6;stop-opacity:1" />
    </linearGradient>
  </defs>
  
  <!-- Background circle -->
  <circle cx="32" cy="32" r="30" fill="url(#grad1)"/>
  
  <!-- Quiz document/paper -->
  <rect x="18" y="12" width="28" height="40" rx="2" fill="white" opacity="0.95"/>
  
  <!-- Question mark - improved visibility -->
  <path d="M 28 20 Q 28 18 30 18 Q 32 18 32 20 Q 32 22 30 24 L 30 26 Q 30 28 32 28 Q 34 28 34 26 L 34 24 Q 36 22 36 20 Q 36 16 32 16 Q 28 16 28 20 Z" fill="#9333ea" stroke="#9333ea" stroke-width="0.5"/>
  <circle cx="32" cy="34" r="2" fill="#9333ea"/>
  
  <!-- Sparkles/Stars for AI magic - more visible -->
  <circle cx="42" cy="18" r="2" fill="#fbbf24"/>
  <circle cx="46" cy="22" r="1.5" fill="#fbbf24"/>
  <circle cx="40" cy="24" r="1.8" fill="#fbbf24"/>
</svg>

